<?xml version="1.0" encoding="UTF-8"?>
<svg viewBox="0 0 800 700" xmlns="http://www.w3.org/2000/svg">
<rect width="800" height="700" fill="#f0f0f0"/>
<text x="780" y="30" font-size="24" font-weight="bold" stroke="white" stroke-width="3" stroke-linejoin="round" text-anchor="end">Turn 17</text>
<text x="780" y="30" font-size="24" font-weight="bold" fill="black" text-anchor="end">Turn 17</text>
<g transform="translate(20.0,20.0) rotate(90.0)">
<line x1="0" y1="0" x2="112.0" y2="0" stroke="#9E9E9E" stroke-width="12" stroke-opacity="0.2"/>
<rect x="0.0" y="-6.0" width="44.800000000000004" height="12" fill="#F44336" rx="2"/>
<circle cx="11.200000000000001" cy="5.0" r="3.0" fill="black"/>
<circle cx="33.6" cy="5.0" r="3.0" fill="black"/>
<rect x="56.0" y="-6.0" width="44.800000000000004" height="12" fill="#F44336" rx="2"/>
<circle cx="67.2" cy="5.0" r="3.0" fill="black"/>
<circle cx="89.6" cy="5.0" r="3.0" fill="black"/>
</g>
<text x="35.0" y="76.0" font-size="14" font-weight="bold" text-anchor="middle" fill="black" stroke="white" stroke-width="2" stroke-linejoin="round">2</text>
<text x="35.0" y="76.0" font-size="14" font-weight="bold" text-anchor="middle" fill="black">2</text>
<g transform="translate(20.0,20.0) rotate(26.56505117707799)">
<line x1="0" y1="0" x2="250.43961347997646" y2="0" stroke="#FFC107" stroke-width="12" stroke-opacity="0.2"/>
</g>
<text x="138.70820393249937" y="62.58359213500126" font-size="14" font-weight="bold" text-anchor="middle" fill="black" stroke="white" stroke-width="2" stroke-linejoin="round">6</text>
<text x="138.70820393249937" y="62.58359213500126" font-size="14" font-weight="bold" text-anchor="middle" fill="black">6</text>
<g transform="translate(20.0,132.0) rotate(0.0)">
<line x1="0" y1="0" x2="224.0" y2="0" stroke="#2196F3" stroke-width="12" stroke-opacity="0.2"/>
</g>
<text x="132.0" y="117.0" font-size="14" font-weight="bold" text-anchor="middle" fill="black" stroke="white" stroke-width="2" stroke-linejoin="round">5</text>
<text x="132.0" y="117.0" font-size="14" font-weight="bold" text-anchor="middle" fill="black">5</text>
<g transform="translate(20.0,132.0) rotate(90.0)">
<line x1="0" y1="0" x2="280.0" y2="0" stroke="#4CAF50" stroke-width="12" stroke-opacity="0.2"/>
</g>
<text x="35.0" y="272.0" font-size="14" font-weight="bold" text-anchor="middle" fill="black" stroke="white" stroke-width="2" stroke-linejoin="round">5</text>
<text x="35.0" y="272.0" font-size="14" font-weight="bold" text-anchor="middle" fill="black">5</text>
<g transform="translate(20.0,132.0) rotate(45.0)">
<line x1="0" y1="0" x2="237.58787847867995" y2="0" stroke="#F44336" stroke-width="12" stroke-opacity="0.2"/>
</g>
<text x="114.60660171779821" y="205.3933982822018" font-size="14" font-weight="bold" text-anchor="middle" fill="black" stroke="white" stroke-width="2" stroke-linejoin="round">6</text>
<text x="114.60660171779821" y="205.3933982822018" font-size="14" font-weight="bold" text-anchor="middle" fill="black">6</text>
<g transform="translate(20.0,412.0) rotate(63.43494882292201)">
<line x1="0" y1="0" x2="125.21980673998823" y2="0" stroke="#FFC107" stroke-width="12" stroke-opacity="0.2"/>
</g>
<text x="61.41640786499874" y="461.2917960675006" font-size="14" font-weight="bold" text-anchor="middle" fill="black" stroke="white" stroke-width="2" stroke-linejoin="round">3</text>
<text x="61.41640786499874" y="461.2917960675006" font-size="14" font-weight="bold" text-anchor="middle" fill="black">3</text>
<g transform="translate(20.0,412.0) rotate(-33.690067525979785)">
<line x1="0" y1="0" x2="201.9108714259834" y2="0" stroke="#FAFAFA" stroke-width="12" stroke-opacity="0.2"/>
</g>
<text x="95.67949705662156" y="343.5192455849323" font-size="14" font-weight="bold" text-anchor="middle" fill="black" stroke="white" stroke-width="2" stroke-linejoin="round">5</text>
<text x="95.67949705662156" y="343.5192455849323" font-size="14" font-weight="bold" text-anchor="middle" fill="black">5</text>
<g transform="translate(76.0,524.0) rotate(-45.0)">
<line x1="0" y1="0" x2="79.19595949289332" y2="0" stroke="#F44336" stroke-width="12" stroke-opacity="0.2"/>
</g>
<text x="93.39339828220179" y="485.3933982822018" font-size="14" font-weight="bold" text-anchor="middle" fill="black" stroke="white" stroke-width="2" stroke-linejoin="round">2</text>
<text x="93.39339828220179" y="485.3933982822018" font-size="14" font-weight="bold" text-anchor="middle" fill="black">2</text>
<g transform="translate(76.0,524.0) rotate(0.0)">
<line x1="0" y1="0" x2="112.0" y2="0" stroke="#212121" stroke-width="12" stroke-opacity="0.2"/>
</g>
<text x="132.0" y="509.0" font-size="14" font-weight="bold" text-anchor="middle" fill="black" stroke="white" stroke-width="2" stroke-linejoin="round">3</text>
<text x="132.0" y="509.0" font-size="14" font-weight="bold" text-anchor="middle" fill="black">3</text>
<g transform="translate(132.0,468.0) rotate(-71.56505117707799)">
<line x1="0" y1="0" x2="177.08754896942924" y2="0" stroke="#FF9800" stroke-width="12" stroke-opacity="0.2"/>
</g>
<text x="145.7697505292423" y="379.25658350974743" font-size="14" font-weight="bold" text-anchor="middle" fill="black" stroke="white" stroke-width="2" stroke-linejoin="round">3</text>
<text x="145.7697505292423" y="379.25658350974743" font-size="14" font-weight="bold" text-anchor="middle" fill="black">3</text>
<g transform="translate(132.0,468.0) rotate(45.0)">
<line x1="0" y1="0" x2="79.19595949289332" y2="0" stroke="#9E9E9E" stroke-width="12" stroke-opacity="0.2"/>
</g>
<text x="170.6066017177982" y="485.3933982822018" font-size="14" font-weight="bold" text-anchor="middle" fill="black" stroke="white" stroke-width="2" stroke-linejoin="round">2</text>
<text x="170.6066017177982" y="485.3933982822018" font-size="14" font-weight="bold" text-anchor="middle" fill="black">2</text>
<g transform="translate(188.0,300.0) rotate(26.56505117707799)">
<line x1="0" y1="0" x2="125.21980673998823" y2="0" stroke="#F44336" stroke-width="12" stroke-opacity="0.2"/>
</g>
<text x="250.70820393249937" y="314.58359213500125" font-size="14" font-weight="bold" text-anchor="middle" fill="black" stroke="white" stroke-width="2" stroke-linejoin="round">3</text>
<text x="250.70820393249937" y="314.58359213500125" font-size="14" font-weight="bold" text-anchor="middle" fill="black">3</text>
<g transform="translate(188.0,300.0) rotate(-71.56505117707799)">
<line x1="0" y1="0" x2="177.08754896942924" y2="0" stroke="#E91E63" stroke-width="12" stroke-opacity="0.2"/>
</g>
<text x="201.7697505292423" y="211.25658350974743" font-size="14" font-weight="bold" text-anchor="middle" fill="black" stroke="white" stroke-width="2" stroke-linejoin="round">3</text>
<text x="201.7697505292423" y="211.25658350974743" font-size="14" font-weight="bold" text-anchor="middle" fill="black">3</text>
<g transform="translate(300.0,356.0) rotate(-26.56505117707799)">
<line x1="0" y1="0" x2="125.21980673998823" y2="0" stroke="#E91E63" stroke-width="12" stroke-opacity="0.2"/>
</g>
<text x="349.2917960675006" y="314.58359213500125" font-size="14" font-weight="bold" text-anchor="middle" fill="black" stroke="white" stroke-width="2" stroke-linejoin="round">4</text>
<text x="349.2917960675006" y="314.58359213500125" font-size="14" font-weight="bold" text-anchor="middle" fill="black">4</text>
<g transform="translate(300.0,356.0) rotate(-104.0362434679265)">
<line x1="0" y1="0" x2="230.89391503458899" y2="0" stroke="#4CAF50" stroke-width="12" stroke-opacity="0.2"/>
</g>
<text x="257.44786249782004" y="247.638034375545" font-size="14" font-weight="bold" text-anchor="middle" fill="black" stroke="white" stroke-width="2" stroke-linejoin="round">4</text>
<text x="257.44786249782004" y="247.638034375545" font-size="14" font-weight="bold" text-anchor="middle" fill="black">4</text>
<g transform="translate(300.0,356.0) rotate(45.0)">
<line x1="0" y1="0" x2="237.58787847867995" y2="0" stroke="#FF9800" stroke-width="12" stroke-opacity="0.2"/>
</g>
<text x="394.6066017177982" y="429.3933982822018" font-size="14" font-weight="bold" text-anchor="middle" fill="black" stroke="white" stroke-width="2" stroke-linejoin="round">5</text>
<text x="394.6066017177982" y="429.3933982822018" font-size="14" font-weight="bold" text-anchor="middle" fill="black">5</text>
<g transform="translate(412.0,300.0) rotate(-26.56505117707799)">
<line x1="0" y1="0" x2="125.21980673998823" y2="0" stroke="#2196F3" stroke-width="12" stroke-opacity="0.2"/>
</g>
<text x="461.2917960675006" y="258.58359213500125" font-size="14" font-weight="bold" text-anchor="middle" fill="black" stroke="white" stroke-width="2" stroke-linejoin="round">4</text>
<text x="461.2917960675006" y="258.58359213500125" font-size="14" font-weight="bold" text-anchor="middle" fill="black">4</text>
<g transform="translate(524.0,244.0) rotate(116.56505117707799)">
<line x1="0" y1="0" x2="125.21980673998823" y2="0" stroke="#4CAF50" stroke-width="12" stroke-opacity="0.2"/>
</g>
<text x="509.41640786499875" y="306.7082039324994" font-size="14" font-weight="bold" text-anchor="middle" fill="black" stroke="white" stroke-width="2" stroke-linejoin="round">3</text>
<text x="509.41640786499875" y="306.7082039324994" font-size="14" font-weight="bold" text-anchor="middle" fill="black">3</text>
<g transform="translate(524.0,244.0) rotate(-18.43494882292201)">
<line x1="0" y1="0" x2="177.08754896942924" y2="0" stroke="#FAFAFA" stroke-width="12" stroke-opacity="0.2"/>
</g>
<text x="603.2565835097474" y="201.7697505292423" font-size="14" font-weight="bold" text-anchor="middle" fill="black" stroke="white" stroke-width="2" stroke-linejoin="round">5</text>
<text x="603.2565835097474" y="201.7697505292423" font-size="14" font-weight="bold" text-anchor="middle" fill="black">5</text>
<g transform="translate(468.0,356.0) rotate(90.0)">
<line x1="0" y1="0" x2="168.0" y2="0" stroke="#4CAF50" stroke-width="12" stroke-opacity="0.2"/>
</g>
<text x="483.0" y="440.0" font-size="14" font-weight="bold" text-anchor="middle" fill="black" stroke="white" stroke-width="2" stroke-linejoin="round">4</text>
<text x="483.0" y="440.0" font-size="14" font-weight="bold" text-anchor="middle" fill="black">4</text>
<g transform="translate(468.0,524.0) rotate(18.43494882292201)">
<line x1="0" y1="0" x2="177.08754896942924" y2="0" stroke="#F44336" stroke-width="12" stroke-opacity="0.2"/>
</g>
<text x="556.7434164902526" y="537.7697505292423" font-size="14" font-weight="bold" text-anchor="middle" fill="black" stroke="white" stroke-width="2" stroke-linejoin="round">5</text>
<text x="556.7434164902526" y="537.7697505292423" font-size="14" font-weight="bold" text-anchor="middle" fill="black">5</text>
<g transform="translate(636.0,580.0) rotate(-81.86989764584403)">
<line x1="0" y1="0" x2="395.9797974644666" y2="0" stroke="#2196F3" stroke-width="12" stroke-opacity="0.2"/>
</g>
<text x="649.1507575950825" y="381.87867965644034" font-size="14" font-weight="bold" text-anchor="middle" fill="black" stroke="white" stroke-width="2" stroke-linejoin="round">8</text>
<text x="649.1507575950825" y="381.87867965644034" font-size="14" font-weight="bold" text-anchor="middle" fill="black">8</text>
<g transform="translate(692.0,188.0) rotate(-63.43494882292201)">
<line x1="0" y1="0" x2="62.609903369994115" y2="0" stroke="#FFC107" stroke-width="12" stroke-opacity="0.2"/>
</g>
<text x="692.5835921350013" y="153.29179606750063" font-size="14" font-weight="bold" text-anchor="middle" fill="black" stroke="white" stroke-width="2" stroke-linejoin="round">2</text>
<text x="692.5835921350013" y="153.29179606750063" font-size="14" font-weight="bold" text-anchor="middle" fill="black">2</text>
<g transform="translate(692.0,188.0) rotate(-63.43494882292201)">
<line x1="0" y1="0" x2="62.609903369994115" y2="0" stroke="#F44336" stroke-width="12" stroke-opacity="0.2"/>
</g>
<text x="692.5835921350013" y="153.29179606750063" font-size="14" font-weight="bold" text-anchor="middle" fill="black" stroke="white" stroke-width="2" stroke-linejoin="round">2</text>
<text x="692.5835921350013" y="153.29179606750063" font-size="14" font-weight="bold" text-anchor="middle" fill="black">2</text>
<g transform="translate(244.0,132.0) rotate(45.0)">
<line x1="0" y1="0" x2="237.58787847867995" y2="0" stroke="#F44336" stroke-width="12" stroke-opacity="0.2"/>
</g>
<text x="338.6066017177982" y="205.3933982822018" font-size="14" font-weight="bold" text-anchor="middle" fill="black" stroke="white" stroke-width="2" stroke-linejoin="round">5</text>
<text x="338.6066017177982" y="205.3933982822018" font-size="14" font-weight="bold" text-anchor="middle" fill="black">5</text>
<g transform="translate(244.0,132.0) rotate(7.125016348901798)">
<line x1="0" y1="0" x2="451.4864339047188" y2="0" stroke="#FF9800" stroke-width="12" stroke-opacity="0.2"/>
</g>
<text x="469.86052101883814" y="145.11583184929498" font-size="14" font-weight="bold" text-anchor="middle" fill="black" stroke="white" stroke-width="2" stroke-linejoin="round">8</text>
<text x="469.86052101883814" y="145.11583184929498" font-size="14" font-weight="bold" text-anchor="middle" fill="black">8</text>
<g transform="translate(188.0,524.0) rotate(0.0)">
<line x1="0" y1="0" x2="280.0" y2="0" stroke="#FFC107" stroke-width="12" stroke-opacity="0.2"/>
</g>
<text x="328.0" y="509.0" font-size="14" font-weight="bold" text-anchor="middle" fill="black" stroke="white" stroke-width="2" stroke-linejoin="round">7</text>
<text x="328.0" y="509.0" font-size="14" font-weight="bold" text-anchor="middle" fill="black">7</text>
<circle cx="20.0" cy="20.0" r="8" fill="white" stroke="black" stroke-width="2"/>
<text x="20.0" y="8.0" font-size="12" font-weight="bold" text-anchor="middle" stroke="white" stroke-width="3" stroke-linejoin="round">Seattle</text>
<text x="20.0" y="8.0" font-size="12" font-weight="bold" text-anchor="middle" fill="black">Seattle</text>
<circle cx="20.0" cy="132.0" r="8" fill="white" stroke="black" stroke-width="2"/>
<text x="20.0" y="120.0" font-size="12" font-weight="bold" text-anchor="middle" stroke="white" stroke-width="3" stroke-linejoin="round">Portland</text>
<text x="20.0" y="120.0" font-size="12" font-weight="bold" text-anchor="middle" fill="black">Portland</text>
<circle cx="20.0" cy="412.0" r="8" fill="white" stroke="black" stroke-width="2"/>
<text x="20.0" y="400.0" font-size="12" font-weight="bold" text-anchor="middle" stroke="white" stroke-width="3" stroke-linejoin="round">San Francisco</text>
<text x="20.0" y="400.0" font-size="12" font-weight="bold" text-anchor="middle" fill="black">San Francisco</text>
<circle cx="76.0" cy="524.0" r="8" fill="white" stroke="black" stroke-width="2"/>
<text x="76.0" y="512.0" font-size="12" font-weight="bold" text-anchor="middle" stroke="white" stroke-width="3" stroke-linejoin="round">Los Angeles</text>
<text x="76.0" y="512.0" font-size="12" font-weight="bold" text-anchor="middle" fill="black">Los Angeles</text>
<circle cx="188.0" cy="300.0" r="8" fill="white" stroke="black" stroke-width="2"/>
<text x="188.0" y="288.0" font-size="12" font-weight="bold" text-anchor="middle" stroke="white" stroke-width="3" stroke-linejoin="round">Salt Lake City</text>
<text x="188.0" y="288.0" font-size="12" font-weight="bold" text-anchor="middle" fill="black">Salt Lake City</text>
<circle cx="132.0" cy="468.0" r="8" fill="white" stroke="black" stroke-width="2"/>
<text x="132.0" y="456.0" font-size="12" font-weight="bold" text-anchor="middle" stroke="white" stroke-width="3" stroke-linejoin="round">Las Vegas</text>
<text x="132.0" y="456.0" font-size="12" font-weight="bold" text-anchor="middle" fill="black">Las Vegas</text>
<circle cx="188.0" cy="524.0" r="8" fill="white" stroke="black" stroke-width="2"/>
<text x="188.0" y="512.0" font-size="12" font-weight="bold" text-anchor="middle" stroke="white" stroke-width="3" stroke-linejoin="round">Phoenix</text>
<text x="188.0" y="512.0" font-size="12" font-weight="bold" text-anchor="middle" fill="black">Phoenix</text>
<circle cx="300.0" cy="356.0" r="8" fill="white" stroke="black" stroke-width="2"/>
<text x="300.0" y="344.0" font-size="12" font-weight="bold" text-anchor="middle" stroke="white" stroke-width="3" stroke-linejoin="round">Denver</text>
<text x="300.0" y="344.0" font-size="12" font-weight="bold" text-anchor="middle" fill="black">Denver</text>
<circle cx="244.0" cy="132.0" r="8" fill="white" stroke="black" stroke-width="2"/>
<text x="244.0" y="120.0" font-size="12" font-weight="bold" text-anchor="middle" stroke="white" stroke-width="3" stroke-linejoin="round">Helena</text>
<text x="244.0" y="120.0" font-size="12" font-weight="bold" text-anchor="middle" fill="black">Helena</text>
<circle cx="412.0" cy="300.0" r="8" fill="white" stroke="black" stroke-width="2"/>
<text x="412.0" y="288.0" font-size="12" font-weight="bold" text-anchor="middle" stroke="white" stroke-width="3" stroke-linejoin="round">Omaha</text>
<text x="412.0" y="288.0" font-size="12" font-weight="bold" text-anchor="middle" fill="black">Omaha</text>
<circle cx="524.0" cy="244.0" r="8" fill="white" stroke="black" stroke-width="2"/>
<text x="524.0" y="232.0" font-size="12" font-weight="bold" text-anchor="middle" stroke="white" stroke-width="3" stroke-linejoin="round">Chicago</text>
<text x="524.0" y="232.0" font-size="12" font-weight="bold" text-anchor="middle" fill="black">Chicago</text>
<circle cx="468.0" cy="356.0" r="8" fill="white" stroke="black" stroke-width="2"/>
<text x="468.0" y="344.0" font-size="12" font-weight="bold" text-anchor="middle" stroke="white" stroke-width="3" stroke-linejoin="round">Saint Louis</text>
<text x="468.0" y="344.0" font-size="12" font-weight="bold" text-anchor="middle" fill="black">Saint Louis</text>
<circle cx="468.0" cy="524.0" r="8" fill="white" stroke="black" stroke-width="2"/>
<text x="468.0" y="512.0" font-size="12" font-weight="bold" text-anchor="middle" stroke="white" stroke-width="3" stroke-linejoin="round">New Orleans</text>
<text x="468.0" y="512.0" font-size="12" font-weight="bold" text-anchor="middle" fill="black">New Orleans</text>
<circle cx="636.0" cy="580.0" r="8" fill="white" stroke="black" stroke-width="2"/>
<text x="636.0" y="568.0" font-size="12" font-weight="bold" text-anchor="middle" stroke="white" stroke-width="3" stroke-linejoin="round">Miami</text>
<text x="636.0" y="568.0" font-size="12" font-weight="bold" text-anchor="middle" fill="black">Miami</text>
<circle cx="692.0" cy="188.0" r="8" fill="white" stroke="black" stroke-width="2"/>
<text x="692.0" y="176.0" font-size="12" font-weight="bold" text-anchor="middle" stroke="white" stroke-width="3" stroke-linejoin="round">New York</text>
<text x="692.0" y="176.0" font-size="12" font-weight="bold" text-anchor="middle" fill="black">New York</text>
<circle cx="720.0" cy="132.0" r="8" fill="white" stroke="black" stroke-width="2"/>
<text x="720.0" y="120.0" font-size="12" font-weight="bold" text-anchor="middle" stroke="white" stroke-width="3" stroke-linejoin="round">Boston</text>
<text x="720.0" y="120.0" font-size="12" font-weight="bold" text-anchor="middle" fill="black">Boston</text>
<text x="133.33333333333334" y="620" font-size="16" font-weight="bold" text-anchor="middle">Player 0</text>
<rect x="10.0" y="630" width="20" height="30" fill="#2196F3" stroke="black" stroke-width="1" rx="2"/>
<rect x="35.0" y="630" width="20" height="30" fill="#F44336" stroke="black" stroke-width="1" rx="2"/>
<rect x="60.0" y="630" width="20" height="30" fill="#212121" stroke="black" stroke-width="1" rx="2"/>
<rect x="85.0" y="630" width="20" height="30" fill="#2196F3" stroke="black" stroke-width="1" rx="2"/>
<rect x="110.0" y="630" width="20" height="30" fill="#FFC107" stroke="black" stroke-width="1" rx="2"/>
<text x="400.0" y="620" font-size="16" font-weight="bold" text-anchor="middle">Player 1</text>
<rect x="276.6666666666667" y="630" width="20" height="30" fill="#FAFAFA" stroke="black" stroke-width="1" rx="2"/>
<rect x="301.6666666666667" y="630" width="20" height="30" fill="#FF9800" stroke="black" stroke-width="1" rx="2"/>
<rect x="326.6666666666667" y="630" width="20" height="30" fill="#E91E63" stroke="black" stroke-width="1" rx="2"/>
<rect x="351.6666666666667" y="630" width="20" height="30" fill="#2196F3" stroke="black" stroke-width="1" rx="2"/>
<rect x="376.6666666666667" y="630" width="20" height="30" fill="#4CAF50" stroke="black" stroke-width="1" rx="2"/>
<rect x="401.6666666666667" y="630" width="20" height="30" fill="#E91E63" stroke="black" stroke-width="1" rx="2"/>
<rect x="426.6666666666667" y="630" width="20" height="30" fill="#FF9800" stroke="black" stroke-width="1" rx="2"/>
<text x="666.6666666666667" y="620" font-size="16" font-weight="bold" text-anchor="middle">Player 2</text>
<rect x="543.3333333333334" y="630" width="20" height="30" fill="#FF9800" stroke="black" stroke-width="1" rx="2"/>
<rect x="568.3333333333334" y="630" width="20" height="30" fill="#2196F3" stroke="black" stroke-width="1" rx="2"/>
<rect x="593.3333333333334" y="630" width="20" height="30" fill="#FFC107" stroke="black" stroke-width="1" rx="2"/>
<rect x="618.3333333333334" y="630" width="20" height="30" fill="#4CAF50" stroke="black" stroke-width="1" rx="2"/>
<rect x="643.3333333333334" y="630" width="20" height="30" fill="#212121" stroke="black" stroke-width="1" rx="2"/>
<rect x="668.3333333333334" y="630" width="20" height="30" fill="#212121" stroke="black" stroke-width="1" rx="2"/>
<rect x="693.3333333333334" y="630" width="20" height="30" fill="#FF9800" stroke="black" stroke-width="1" rx="2"/>
</svg>